<svg width="54" height="55" viewBox="0 0 54 55" fill="none" xmlns="http://www.w3.org/2000/svg">
<path d="M26.2277 10.014C28.7168 10.014 30.7347 7.99615 30.7347 5.507C30.7347 3.01785 28.7168 1 26.2277 1C23.7386 1 21.7207 3.01785 21.7207 5.507C21.7207 7.99615 23.7386 10.014 26.2277 10.014Z" fill="white"/>
<path d="M27.797 12.163C26.674 11.935 25.453 11.945 24.35 12.205C16.857 13.083 14.424 21.756 15.111 28.369C15.409 31.228 19.916 31.258 19.615 28.369C19.365 25.959 19.472 22.322 20.753 19.737C20.753 22.879 20.753 26.021 20.753 29.162C20.753 29.273 20.764 29.377 20.769 29.484C20.766 29.535 20.754 29.578 20.754 29.63C20.754 37.109 20.741 44.585 20.432 52.058C20.295 55.38 25.446 55.367 25.582 52.058C25.824 46.201 25.885 40.341 25.899 34.48C26.143 34.496 26.387 34.496 26.631 34.482C26.646 40.343 26.705 46.203 26.945 52.058C27.082 55.367 32.233 55.38 32.095 52.058C31.786 44.585 31.775 37.109 31.775 29.63C31.775 29.398 31.744 29.187 31.697 28.984C31.69 25.737 31.566 22.487 31.604 19.242C33.138 21.839 33.278 25.8 33.012 28.367C32.71 31.254 37.218 31.225 37.516 28.367C38.219 21.617 35.669 12.719 27.797 12.163Z" fill="white"/>
</svg>
