<svg width="54" height="55" viewBox="0 0 54 55" fill="none" xmlns="http://www.w3.org/2000/svg">
<g clip-path="url(#clip0)">
<path d="M21.876 17.0346C24.4761 17.0346 26.584 14.9268 26.584 12.3266C26.584 9.72649 24.4761 7.61865 21.876 7.61865C19.2758 7.61865 17.168 9.72649 17.168 12.3266C17.168 14.9268 19.2758 17.0346 21.876 17.0346Z" fill="white"/>
<path d="M47.9032 41.9538C45.4646 37.6761 41.8081 34.7577 37.3188 32.9186C37.0416 27.3509 34.3347 22.11 29.9913 18.5732C27.7858 16.7764 24.7423 16.4353 22.5927 18.6128C22.4603 18.746 22.3388 18.891 22.2236 19.0404C17.7929 16.5163 12.9139 14.6259 8.40932 13.0974C4.99221 11.9379 3.5375 17.3292 6.92581 18.4787C12.0254 20.2079 17.6308 22.4494 22.2974 25.6991C22.4036 25.8071 22.5126 25.9133 22.6323 26.0115C25.3067 28.1881 26.9676 30.7752 26.8758 34.2788C26.8605 34.8504 26.9262 35.3689 27.0504 35.8433C26.7596 37.6509 26.3374 39.4386 25.8045 41.1913C24.1545 39.4864 22.6179 37.6842 21.3405 35.657C18.9478 31.8645 12.9103 35.3626 15.3174 39.1767C17.882 43.2446 21.2271 46.6149 24.745 49.8529C26.2231 51.2149 29.3045 51.3202 30.2227 49.1472C31.6017 45.8822 32.7018 42.5929 33.4435 39.201C33.6686 39.1452 33.8891 39.0705 34.1061 38.9904C34.3419 39.1506 34.6021 39.2892 34.8937 39.4017C37.1424 40.2614 39.0058 41.636 40.474 43.431C38.8671 45.1071 37.1055 46.6005 34.99 47.6763C30.9815 49.7179 34.512 55.7347 38.5107 53.6976C42.0016 51.9215 44.8606 49.1562 47.3541 46.1774C48.3857 44.9541 48.7314 43.4103 47.9032 41.9538Z" fill="white"/>
<path d="M18.9398 6.90393C19.5969 6.66088 20.3045 6.17387 21.0453 6.17387C22.7134 6.17387 24.2239 6.84721 25.3257 7.93374C24.6083 5.94613 23.9106 3.95041 23.258 1.93939C22.1535 -1.46962 16.765 -0.0104091 17.8767 3.4229C18.217 4.47162 18.5806 5.86151 18.9398 6.90393Z" fill="white"/>
</g>
<defs>
<clipPath id="clip0">
<rect width="44" height="55" fill="white" transform="translate(5)"/>
</clipPath>
</defs>
</svg>
