<svg width="54" height="55" viewBox="0 0 54 55" fill="none" xmlns="http://www.w3.org/2000/svg">
<g clip-path="url(#clip0)">
<path d="M24.1829 11.4913C26.5222 11.4913 28.4185 9.59488 28.4185 7.25565C28.4185 4.91638 26.5222 3.02002 24.1829 3.02002C21.8437 3.02002 19.9473 4.91638 19.9473 7.25565C19.9473 9.59488 21.8437 11.4913 24.1829 11.4913Z" fill="white"/>
<path d="M23.7026 18.2961C24.2197 17.1321 24.7095 16.0321 25.2671 15.0985C25.6507 14.4554 25.6084 13.8536 25.3414 13.3713C24.7866 12.6191 23.7665 12.1895 22.8507 12.4142C22.5254 12.5496 22.2236 12.7968 21.9867 13.1945C21.3972 14.1799 20.4297 16.3282 20.4194 16.3499L18.0482 21.3461L17.4775 21.034L19.2892 15.7876C19.3005 15.7585 19.6757 14.9255 20.1082 14.0454C19.089 14.4196 18.0341 14.9621 16.9707 15.7359C16.9707 15.7359 13.9226 18.3628 15.4081 23.5895C15.7964 25.6015 18.2428 25.2696 18.2428 25.2696C20.9826 24.4009 22.3647 21.3029 23.7026 18.2961Z" fill="white"/>
<path d="M29.9059 14.8555C29.7498 14.7455 29.5938 14.6618 29.4377 14.5988C29.0315 14.3882 28.0838 13.9454 26.7666 13.6436C26.8897 14.2979 26.7872 15.021 26.3519 15.7477C25.8329 16.6165 25.3581 17.6817 24.857 18.8109C24.4217 19.7906 23.9657 20.8089 23.4476 21.7754C23.7927 21.6908 24.1631 21.656 24.5608 21.6955C25.4935 21.7857 26.3435 21.8374 27.1586 21.8525L27.4068 21.8572C27.798 21.8657 28.8745 21.8892 29.3643 21.8346C29.4612 21.2338 29.0456 20.4666 28.5341 19.9213C28.0076 19.3591 27.5836 18.952 27.1558 18.6031C27.1107 18.5665 27.0524 18.5185 26.9913 18.4593C26.948 18.4339 26.9057 18.4066 26.8625 18.3775L26.8831 18.3455C26.7073 18.1349 26.5804 17.8378 26.8437 17.5031L27.2451 16.9926L27.8017 17.4091C27.8506 17.4457 27.892 17.4852 27.9277 17.5266C27.9456 17.5416 27.9691 17.5595 27.9916 17.5802C28.4664 17.9685 28.9309 18.4123 29.4997 19.0206C30.3497 19.9326 31.0605 21.3561 30.5001 22.6112C30.251 23.166 29.6173 23.2318 27.3749 23.181L27.1314 23.1754C26.2814 23.1603 25.3967 23.1058 24.4301 23.0127C22.9183 22.8698 22.6701 24.124 22.6325 24.5133C22.5262 25.6105 23.1637 26.8506 24.558 26.986C28.1646 27.3367 31.6443 27.3452 33.3649 25.4582C33.3706 25.4563 33.3724 25.4525 33.3743 25.4497C33.4477 25.3717 33.506 25.2814 33.5708 25.1968C33.8115 24.8499 34.0127 24.4531 34.1434 23.9858C35.2529 20.131 32.9447 16.9719 29.9059 14.8555Z" fill="white"/>
<path d="M24.4334 28.3C22.4354 28.1064 21.3316 26.4347 21.3062 24.7959C20.4648 25.6346 19.4691 26.2777 18.2421 26.5795L18.2148 40.3732V52.8075C18.2148 54.1444 19.1945 55.2313 20.5691 55.2313C21.9456 55.2313 23.0616 54.1444 23.0616 52.8075V35.031H25.2626C25.2626 39.197 25.2626 48.6988 25.2626 52.8648C25.2626 55.7635 29.7606 55.7635 29.7606 52.8648C29.7606 48.6988 29.7606 44.5383 29.7606 40.3742L29.9044 28.3649C29.1852 28.4627 28.4584 28.5022 27.7551 28.5022C26.5028 28.5013 25.3303 28.3884 24.4334 28.3Z" fill="white"/>
<path d="M44.0257 2.82211C43.7286 2.73843 43.3939 2.68296 43.0508 2.64065C43.7324 -2.45715 34.7177 0.219619 32.2638 1.66847C29.9819 3.01673 31.1402 5.18014 32.9802 6.28019C33.4306 6.55096 33.9091 6.77191 34.4027 6.95619C34.3943 7.33416 34.4855 7.72246 34.6829 8.0976C34.76 8.50941 34.8785 8.91182 35.0571 9.27846C35.1013 9.36778 35.1549 9.45428 35.2132 9.5389C34.5889 10.0118 34.1517 10.5872 34.2326 11.1984C34.2213 12.9406 37.213 12.9819 38.0263 14.0914C38.4672 14.6903 39.4789 14.1102 39.0333 13.5028C38.6337 12.9575 38.0047 12.6153 37.3578 12.3134C38.063 12.0869 38.5961 11.6544 38.5349 11.0658C39.2561 11.0545 39.9283 10.8401 40.3824 10.3503C40.4802 10.2431 40.5648 10.1218 40.6307 9.99396C41.1092 9.95165 41.5596 9.89242 41.9404 9.81626C43.2021 9.56335 43.4259 8.6401 43.204 7.65853C44.0267 7.4451 44.7807 7.08312 45.3524 6.48327C46.7533 5.01655 45.6833 3.28657 44.0257 2.82211ZM34.8371 5.7029C34.8061 5.74427 34.7769 5.78752 34.7469 5.83171C34.6331 5.78658 34.5156 5.74991 34.4056 5.69914C33.6205 5.33904 32.8016 4.91407 32.2835 4.20045C31.568 3.21887 32.9398 2.59364 33.6252 2.26457C35.043 1.58198 36.6733 1.25478 38.2115 0.965201C39.8992 0.646471 42.1265 0.527067 41.8746 2.58047C40.7961 2.6162 39.7036 2.89074 38.9167 3.47649C37.9567 3.23956 36.9639 3.32512 36.0848 3.97104C35.4821 4.41294 35.074 5.02313 34.8371 5.7029ZM39.1809 4.88116C39.1903 4.85671 39.1987 4.83133 39.2091 4.80782C39.3304 4.86329 39.4535 4.92347 39.5729 4.98928C39.4422 4.94979 39.3125 4.91501 39.1809 4.88116ZM40.6382 6.75123C40.1662 6.71926 39.7318 6.52934 39.446 6.17582C39.871 6.32626 40.2762 6.51806 40.6382 6.75123ZM37.9868 5.84581C38.0695 6.11565 38.2021 6.37327 38.3742 6.61114C38.1711 6.58669 37.9633 6.56507 37.7649 6.5378C37.1876 6.45788 36.5897 6.36198 36.002 6.22471C36.2935 5.99906 36.6733 5.84299 37.0682 5.81572C37.3587 5.79598 37.669 5.81102 37.9868 5.84581ZM37.1679 4.65551C37.449 4.52952 37.7461 4.48345 38.0517 4.50038C38.0272 4.55867 38.0112 4.61696 37.9924 4.67525C37.7113 4.64987 37.4358 4.64423 37.1679 4.65551ZM36.5831 11.3347C36.0284 11.3798 35.7407 11.2303 35.6983 11.0037C35.8986 10.9276 36.2192 10.8994 36.5398 10.9135C37.134 10.9398 37.3446 11.2736 36.5831 11.3347ZM41.6301 8.69181C41.2775 8.79148 40.8939 8.8225 40.5066 8.83096C40.5009 8.82626 40.499 8.82156 40.4953 8.81686C39.7976 8.10419 38.7305 8.20291 37.8307 8.35052C37.6511 8.38061 37.4264 8.43984 37.1839 8.5207C36.9103 8.45018 36.6395 8.36462 36.38 8.23863C36.1139 8.10889 35.9212 7.96503 35.7764 7.81554C35.7566 7.66511 35.7491 7.51186 35.7519 7.35766C36.8755 7.62844 38.0432 7.76195 39.1677 7.85409C39.5701 7.887 40.0064 7.9105 40.4501 7.9199C40.5959 7.94623 40.7416 7.96409 40.8864 7.96597C41.0359 7.96785 41.1826 7.94435 41.3292 7.91238C41.5991 7.9011 41.867 7.87948 42.1369 7.84845C42.1933 8.23017 42.088 8.56207 41.6301 8.69181ZM42.7772 6.52746C42.5101 6.00847 42.1745 5.54212 41.868 5.23656C41.4233 4.79278 40.893 4.37815 40.3204 4.05002C40.4182 4.02087 40.515 3.99454 40.6072 3.97198C41.0378 3.86856 41.522 3.79616 42.0128 3.7736C42.2046 3.88454 42.4509 3.89394 42.6408 3.77642C43.2849 3.80838 43.9139 3.94095 44.4347 4.22678C45.9833 5.0786 43.5679 6.28865 42.7772 6.52746Z" fill="white"/>
</g>
<defs>
<clipPath id="clip0">
<rect width="54" height="55" fill="white"/>
</clipPath>
</defs>
</svg>
