<svg width="54" height="55" viewBox="0 0 54 55" fill="none" xmlns="http://www.w3.org/2000/svg">
<path d="M11.317 11.2622C11.3329 11.2624 11.4 11.2624 11.4157 11.2623V11.2622C14.5024 11.2343 16.9964 8.72449 16.9964 5.6312C16.9964 2.53792 14.5024 0.0280446 11.4157 0.000194177V8.32185e-05C11.4 -2.77395e-05 11.3329 -2.77395e-05 11.317 8.32185e-05V0.000194177C8.23022 0.0280446 5.73633 2.53792 5.73633 5.6312C5.73633 8.72449 8.23022 11.2343 11.317 11.2622Z" fill="white"/>
<path d="M43.0426 11.2647C46.1532 11.2647 48.6749 8.743 48.6749 5.63234C48.6749 2.52168 46.1532 0 43.0426 0C39.9319 0 37.4102 2.52168 37.4102 5.63234C37.4102 8.743 39.9319 11.2647 43.0426 11.2647Z" fill="white"/>
<path d="M46.0685 12.232C45.5559 11.9457 45.0056 11.7288 44.4469 11.5918L43.0431 13.0042L41.6826 11.5762C41.6764 11.5772 41.6712 11.5781 41.6678 11.5787C40.9495 11.7498 39.3817 12.5668 39.2706 12.6364C34.9445 15.2896 33.045 19.2046 31.0564 28.2666C30.8787 29.0784 31.1826 29.8773 31.7711 30.3829C31.9753 31.7597 31.8635 32.7886 31.4236 33.0983C30.608 33.6724 29.5147 32.7522 29.1333 32.4683C28.7039 32.1339 28.2012 31.8905 27.6804 31.7663C27.6779 31.7658 27.6743 31.7648 27.6719 31.764L26.854 32.6223L26.036 31.764C26.0336 31.7648 26.03 31.7658 26.0275 31.7663C25.5067 31.8905 25.004 32.1339 24.5746 32.4683C24.1932 32.7522 23.0998 33.6724 22.2843 33.0983C21.8382 32.7843 21.7296 31.7307 21.9456 30.3249C22.4028 29.9306 22.6969 29.3517 22.706 28.701C23.3022 15.4271 13.5468 11.782 12.7685 11.5926L11.3661 13.0044L9.96374 11.5926C9.18548 11.782 -0.569843 15.4272 0.0262236 28.701C0.0428673 29.8974 1.01874 30.8568 2.21232 30.8568C2.22319 30.8568 2.23262 30.8568 2.24405 30.8559C3.45094 30.838 4.4165 29.8489 4.39997 28.64C4.36646 26.2636 4.55586 24.4034 4.90527 22.9149C4.90527 22.9149 5.25457 21.5949 5.60519 21.4193V24.7751C4.98893 27.4434 2.41715 38.6792 2.40838 40.3565C2.40494 41.177 3.96113 41.7751 6.14045 42.1297V52.3779C6.14045 53.8042 7.07616 54.9603 8.50253 54.9603C9.93056 54.9603 11.1146 53.8038 11.1146 52.3779L11.0869 42.5016C11.106 42.5016 11.1251 42.5014 11.1443 42.5011C11.1634 42.5014 11.5431 42.5016 11.5624 42.5016V52.3779C11.5624 53.8039 12.7185 54.9603 14.1466 54.9603C15.5729 54.9603 16.5918 53.804 16.5918 52.3779V42.1297C18.7711 41.7751 20.3273 41.1769 20.3239 40.3565C20.3152 38.6792 17.7434 27.4434 17.1271 24.7751V21.4193C17.4775 21.595 17.8271 22.9149 17.8271 22.9149C18.1762 24.4034 18.3657 26.2636 18.3323 28.64C18.3208 29.4726 18.7755 30.2007 19.4538 30.5794C19.2426 32.672 19.6862 34.1654 20.7805 35.0211C21.4731 35.5629 22.2796 35.7326 23.0184 35.7326C23.1432 35.7326 23.2657 35.7271 23.3859 35.7183C23.3831 35.8453 23.3809 35.976 23.3809 36.1131V41.3019C23.3809 41.6556 23.4966 42.2275 23.6189 42.5297C23.6089 42.5984 23.6038 53.4032 23.6038 53.4032C23.6038 54.2626 24.3007 54.9604 25.1609 54.9604C26.021 54.9604 26.717 54.2629 26.717 53.4032V44.2871L26.7699 44.2873V44.2882L26.854 44.2877L26.938 44.2882V44.2873L26.9909 44.2871V53.4032C26.9909 54.2629 27.6868 54.9604 28.547 54.9604C29.4071 54.9604 30.1041 54.2626 30.1041 53.4032C30.1041 53.4032 30.099 42.5984 30.089 42.5297C30.2112 42.2274 30.327 41.6555 30.327 41.3019V36.1131C30.327 35.9761 30.3248 35.8453 30.322 35.7183C30.4421 35.7271 30.5646 35.7326 30.6895 35.7326C31.4282 35.7326 32.2348 35.5629 32.9275 35.0211C34.0188 34.1678 34.463 32.6804 34.256 30.597C34.3909 30.5339 34.5207 30.4587 34.6402 30.3659C34.9742 30.0705 35.2231 29.6727 35.3271 29.2041C35.9775 26.2401 36.5972 24.0529 37.2761 21.9866V28.9233C37.2761 29.5913 37.4253 30.2957 37.6806 30.8554L37.666 52.3772C37.666 53.8035 38.8224 54.9604 40.2504 54.9604C41.6766 54.9604 42.8337 53.8032 42.8337 52.3772V33.8847L43.2007 33.8866V52.3775C43.2007 53.8037 44.3579 54.9606 45.785 54.9606C47.212 54.9606 48.3694 53.8035 48.3694 52.3775L48.3642 30.8508C48.6419 30.2697 48.8048 29.625 48.8048 28.9229V22.0143C48.8048 22.0143 49.8951 23.8302 49.3858 28.2553C49.264 29.457 50.1417 30.5284 51.3438 30.6493C51.4174 30.6562 51.4903 30.6596 51.564 30.6596C52.674 30.6596 53.6237 29.8188 53.7369 28.6925C54.7259 18.8527 49.5246 14.126 46.0685 12.232ZM43.0428 26.8924C42.6798 26.8924 42.3861 26.5986 42.3861 26.2363C42.3861 25.8737 42.6798 25.5798 43.0428 25.5798C43.4054 25.5798 43.6993 25.8737 43.6993 26.2363C43.6993 26.5984 43.4053 26.8924 43.0428 26.8924ZM43.0428 24.8336C42.6798 24.8336 42.3861 24.5395 42.3861 24.177C42.3861 23.8143 42.6798 23.5205 43.0428 23.5205C43.4054 23.5205 43.6993 23.8143 43.6993 24.177C43.6993 24.5395 43.4053 24.8336 43.0428 24.8336ZM43.0428 22.8585C42.6798 22.8585 42.3861 22.5647 42.3861 22.2021C42.3861 21.8395 42.6798 21.5454 43.0428 21.5454C43.4054 21.5454 43.6993 21.8394 43.6993 22.2021C43.6993 22.5648 43.4053 22.8585 43.0428 22.8585ZM43.1508 20.3L42.1353 14.6827L43.0432 13.79L43.993 14.6677L43.1508 20.3Z" fill="white"/>
<path d="M26.743 31.5718C26.7794 31.573 26.8158 31.5745 26.8525 31.5745C26.853 31.5745 26.8534 31.5744 26.854 31.5744C26.8544 31.5744 26.8549 31.5745 26.8553 31.5745C26.8921 31.5745 26.9284 31.5729 26.9649 31.5718C28.7879 31.5123 30.2471 30.0172 30.247 28.1793C30.247 26.343 28.7878 24.8548 26.9649 24.7958V24.7957C26.9284 24.7945 26.8921 24.793 26.8553 24.793C26.8549 24.793 26.8544 24.793 26.854 24.793C26.8534 24.793 26.853 24.793 26.8525 24.793C26.8158 24.793 26.7794 24.7947 26.743 24.7957V24.7958C24.9202 24.8548 23.4609 26.343 23.4609 28.1793C23.4608 30.0172 24.9202 31.5124 26.743 31.5718Z" fill="white"/>
</svg>
