<svg width="54" height="55" viewBox="0 0 54 55" fill="none" xmlns="http://www.w3.org/2000/svg">
<path d="M26.6437 15.2299C30.7369 15.2299 34.0546 11.9379 34.0546 7.87694C34.0546 3.81644 30.7369 0.524414 26.6437 0.524414C22.5507 0.524414 19.2325 3.81644 19.2324 7.87694C19.2325 11.9377 22.5508 15.2299 26.6437 15.2299Z" fill="white"/>
<path d="M48.1293 44.0591H36.503C35.4704 44.0591 34.6328 44.889 34.6328 45.9128V52.3214C34.6328 53.3447 35.4701 54.1751 36.503 54.1751H48.1293C49.1616 54.1751 50 53.3452 50 52.3214V45.9128C49.9994 44.8892 49.162 44.0591 48.1293 44.0591Z" fill="white"/>
<path d="M35.5947 42.0106C39.7406 43.7094 43.1346 44.5083 45.759 42.289C48.5298 39.8851 48.7798 36.1906 47.5979 32.7102L42.0521 17.1603C40.969 13.9286 37.4118 12.7106 34.5297 12.9446L34.5063 12.9472C34.5063 12.9472 33.4954 13.0641 32.6388 13.3247C31.7452 13.5988 30.9942 14.1214 30.9942 14.1214C30.3839 14.5031 29.7921 14.9868 29.264 15.5447C28.6891 16.1007 28.1249 16.655 27.5888 17.1898C24.2362 20.5283 22.5204 22.2246 19.9609 21.5526C19.9609 21.5526 19.9384 21.547 19.8974 21.5356L21.9221 20.0522C22.0362 19.9685 22.1113 19.8427 22.1304 19.7034C22.1496 19.564 22.1108 19.4227 22.0234 19.3121L14.1728 9.37848C13.9943 9.15266 13.6655 9.11249 13.4374 9.28878L11.4422 10.8294L9.02621 8.05719C8.91109 7.92506 8.73689 7.85888 8.56237 7.88123C8.38785 7.90347 8.23628 8.01109 8.15838 8.16762L4.05394 16.4408C3.96026 16.6296 3.9904 16.856 4.13043 17.0142L11.4639 25.3067L12.413 26.4154C12.5708 26.5999 12.8319 26.6494 13.0435 26.5463C13.0716 26.5327 13.0989 26.5163 13.1248 26.4972L13.9602 25.8852C14.7294 26.3106 15.4245 26.6387 16.0323 26.89C17.8927 27.7684 19.5751 28.1428 21.1158 28.1428C24.0173 28.1428 26.418 26.8249 28.5686 25.0842L30.9115 31.08C26.9109 29.5383 23.2827 28.815 20.5785 30.9453C16.6053 34.0726 13.2818 44.5542 12.0374 48.9157C11.4175 51.0888 12.6896 53.3508 14.8811 53.9661C15.257 54.0711 15.6355 54.1234 16.0081 54.1234C17.8053 54.1234 19.4579 52.9472 19.973 51.1462C21.5702 45.5567 23.9046 39.7749 25.2823 37.8525C25.9494 37.9799 26.9119 38.3135 27.9465 38.7199C25.9633 41.4794 24.9274 43.9077 22.833 49.0165C22.0551 50.9142 22.9755 53.0764 24.8887 53.8499C25.3498 54.0363 25.825 54.1234 26.2954 54.1234C27.7719 54.1234 29.1708 53.2511 29.7611 51.8105C31.8927 46.613 32.5687 44.7838 34.8521 41.6934L35.5947 42.0106ZM8.75028 9.33272L10.6128 11.4699L5.87522 15.1278L8.75028 9.33272Z" fill="white"/>
</svg>
