<svg width="54" height="55" viewBox="0 0 54 55" fill="none" xmlns="http://www.w3.org/2000/svg">
<path d="M42.8484 2.01185C34.5346 2.74456 28.3996 6.89435 24.8233 12.8935C22.4265 15.8981 17.6387 25.0712 15.8974 29.8733C12.7402 35.8447 9.98714 42.9497 7.8326 49.3546C6.51557 53.2713 12.4292 55.8266 13.7538 51.8923C15.3651 47.1003 17.3117 41.9194 19.5116 37.1115C21.6946 41.9973 23.9128 46.8672 26.2946 51.66C28.1406 55.3806 33.6954 52.1178 31.8561 48.4098C29.404 43.4762 27.1262 38.4637 24.882 33.4345C24.9105 33.3373 24.9465 33.2425 24.9767 33.1461C25.3506 33.2526 25.7631 33.2853 26.2174 33.1989C29.6513 32.5543 33.0851 31.9113 36.5215 31.2666C37.9894 30.9908 38.5519 29.3845 38.3206 28.0985C37.6264 24.2446 35.4308 21.5636 32.6978 19.0268C32.292 17.6469 30.939 16.4263 29.4375 15.2132C32.4815 10.2921 37.4512 7.62119 43.9198 7.05112C47.2212 6.76189 46.1213 1.7243 42.8484 2.01185ZM30.337 23.9168C31.1863 24.8005 31.9089 25.7302 32.4547 26.8066C30.7931 27.1185 29.1307 27.4295 27.4691 27.7414C28.3074 26.3916 29.2723 25.1173 30.337 23.9168Z" fill="white"/>
<path d="M37.4477 19.5296C39.89 19.5296 41.8699 17.5497 41.8699 15.1073C41.8699 12.665 39.89 10.6851 37.4477 10.6851C35.0053 10.6851 33.0254 12.665 33.0254 15.1073C33.0254 17.5497 35.0053 19.5296 37.4477 19.5296Z" fill="white"/>
</svg>
