<svg width="54" height="55" viewBox="0 0 54 55" fill="none" xmlns="http://www.w3.org/2000/svg">
<path d="M27.4805 14.7432C30.7356 14.2155 32.9466 11.149 32.419 7.89388C31.8913 4.63878 28.8248 2.42777 25.5697 2.95545C22.3146 3.48312 20.1035 6.54967 20.6312 9.80476C21.1589 13.0599 24.2254 15.2709 27.4805 14.7432Z" fill="white"/>
<path d="M48.17 39.6121L34.1803 37.0526L34.1615 22.7146H34.2624C34.8661 22.7146 35.4185 23.2082 35.4246 23.7516V32.2954C35.4246 34.5941 38.0212 35.9406 39.9244 34.6593L49.161 28.4403C50.4775 27.5539 50.8202 25.777 49.9264 24.4714C49.0326 23.1659 47.2405 22.8261 45.9241 23.7124L41.1871 26.9019V23.7422C41.1871 23.7374 41.1871 23.7327 41.187 23.7278C41.1682 20.0181 38.0618 17 34.2623 17C32.7257 17 20.6061 17 18.7941 17C14.9884 17 11.8769 20.018 11.8581 23.7278C11.858 23.7326 11.858 23.7373 11.858 23.7422V26.9828L7.4699 24.1075C6.14221 23.2375 4.35481 23.5996 3.47764 24.9162C2.60047 26.2328 2.96557 28.0053 4.29316 28.8752L13.1509 34.6793C15.0538 35.9261 17.6206 34.5805 17.6206 32.2954V23.7516C17.6267 23.2082 18.1845 22.7146 18.7941 22.7146H18.864V36.9615C17.6955 37.2553 7.86947 39.7256 6.73132 40.0118C5.24306 40.3859 4.18185 41.6886 4.1258 43.2101C4.06974 44.7316 5.03224 46.1076 6.48892 46.5886L28.4051 53.8237C30.2128 54.4205 32.1732 53.454 32.7777 51.6534C33.3808 49.8568 32.401 47.9154 30.5893 47.3172L19.8775 43.781L27.9973 43.0076L24.6818 43.6027L31.1224 45.7289C32.6772 46.2422 33.819 47.4207 34.3361 48.8388L48.1583 46.3579C49.8014 46.0629 50.9972 44.6457 51 42.9897C51.003 41.3338 49.812 39.9126 48.17 39.6121V39.6121Z" fill="white"/>
</svg>
